<svg width="80" height="80" viewBox="0 0 80 80" fill="none" xmlns="http://www.w3.org/2000/svg">
<g clip-path="url(#clip0_1_17279)">
<path d="M40 80C62.0914 80 80 62.0914 80 40C80 17.9086 62.0914 0 40 0C17.9086 0 0 17.9086 0 40C0 62.0914 17.9086 80 40 80Z" fill="url(#paint0_linear_1_17279)"/>
<path d="M40 71.6338C56.3951 71.6338 69.6859 58.343 69.6859 41.9479C69.6859 25.5528 56.3951 12.262 40 12.262C23.6049 12.262 10.3141 25.5528 10.3141 41.9479C10.3141 58.343 23.6049 71.6338 40 71.6338Z" fill="#7190AF"/>
<path d="M4.9866 41.4609C4.17822 41.4609 3.52568 40.8084 3.52568 40C3.52568 36.299 4.08083 32.6467 5.16191 29.1502C5.4054 28.3808 6.22351 27.9523 6.99293 28.186C7.76235 28.4295 8.19089 29.2476 7.95714 30.017C6.95397 33.2311 6.44752 36.5912 6.44752 40C6.44752 40.8084 5.79498 41.4609 4.9866 41.4609Z" fill="#D1E7F7"/>
<path d="M10.9666 21.8846C10.6842 21.8846 10.4017 21.8067 10.1485 21.6314C9.4765 21.1833 9.30119 20.2678 9.75894 19.6056C14.6287 12.3886 21.9138 7.14877 30.2605 4.84052C31.0299 4.62625 31.8383 5.084 32.0526 5.86316C32.2669 6.64232 31.8091 7.44096 31.0299 7.66496C23.3455 9.78817 16.6545 14.6092 12.1646 21.2515C11.8821 21.6703 11.4244 21.8943 10.9569 21.8943L10.9666 21.8846Z" fill="#D1E7F7"/>
<path d="M69.6859 40.0097C69.6859 56.4013 56.3915 69.6859 40 69.6859C23.6085 69.6859 10.3141 56.4013 10.3141 40.0097C10.3141 39.1819 10.3433 38.3735 10.4212 37.5651C11.6581 22.3034 24.4266 10.3238 40 10.3238C55.5734 10.3238 68.3419 22.3034 69.5788 37.5651C69.6567 38.3735 69.6859 39.1819 69.6859 40.0097Z" fill="#B1CBE1"/>
<path d="M69.5788 37.5651C68.3419 52.8171 55.5734 64.8162 40 64.8162C24.4266 64.8162 11.6581 52.8171 10.4212 37.5651C11.6581 22.3034 24.4266 10.3238 40 10.3238C55.5734 10.3238 68.3419 22.3034 69.5788 37.5651Z" fill="#E5F1F8"/>
<path d="M47.4117 15.6318C53.4405 14.2099 54.5897 13.0704 56.002 7.04164C57.4239 13.0704 58.5634 14.2196 64.5922 15.6318C58.5634 17.0538 57.4142 18.1933 56.002 24.2221C54.58 18.1933 53.4405 17.0441 47.4117 15.6318Z" fill="#F8FFFF"/>
<path d="M24.0857 70.056C26.1213 69.5788 26.5108 69.1892 26.9881 67.1536C27.4653 69.1892 27.8549 69.5788 29.8904 70.056C27.8549 70.5332 27.4653 70.9228 26.9881 72.9584C26.5108 70.9228 26.1213 70.5332 24.0857 70.056Z" fill="#F8FFFF"/>
<path d="M55.5637 36.299C54.9501 35.4809 54.132 34.8965 53.0996 34.5362V28.6925C53.0996 28.001 52.8366 27.3776 52.2912 26.842C51.7555 26.3063 51.1322 26.0336 50.4407 26.0336H44.5873C44.2269 25.0012 43.6523 24.1734 42.8634 23.5403C42.0745 22.9072 41.1882 22.5858 40.2143 22.5858C39.2403 22.5858 38.3443 22.9072 37.6138 23.5403C36.8834 24.1734 36.3282 25.0012 35.9386 26.0336H30.056C29.345 26.0336 28.7217 26.2966 28.186 26.842C27.6601 27.3776 27.3971 28.001 27.3971 28.6925V35.2958C28.3321 35.3835 29.1308 35.7731 29.7833 36.4451C30.4456 37.1171 30.7767 37.9158 30.7767 38.8507C30.7767 39.7857 30.4553 40.5844 29.7833 41.2564C29.1308 41.9284 28.3321 42.318 27.3971 42.4446V49.009C27.3971 49.7492 27.6601 50.392 28.186 50.9277C28.7217 51.4731 29.345 51.7361 30.056 51.7361H36.5814C36.7081 50.6647 37.1171 49.7979 37.8184 49.1356C38.5293 48.4831 39.3085 48.1519 40.1753 48.1519C41.1103 48.1519 41.9187 48.4733 42.6297 49.1356C43.3406 49.7979 43.7497 50.6647 43.8666 51.7361H50.4407C51.1322 51.7361 51.7458 51.4828 52.2912 50.9472C52.8269 50.4212 53.0996 49.7979 53.0996 49.0869V43.1945C54.132 42.8342 54.9501 42.2985 55.5637 41.5778C56.1675 40.8668 56.4792 40 56.4792 38.9871C56.4792 37.9742 56.1675 37.1171 55.5637 36.299ZM46.8274 35.2082L39.961 42.0842C39.8831 42.1719 39.8052 42.2303 39.6981 42.2693C39.6007 42.3083 39.4935 42.3375 39.3864 42.3375C39.2793 42.3375 39.1721 42.3083 39.0747 42.2693C38.9774 42.2303 38.8897 42.1719 38.8313 42.0842L35.5783 38.8507C35.4224 38.6949 35.3445 38.5001 35.3445 38.2566C35.3445 38.0131 35.4224 37.8184 35.5783 37.6625C35.7341 37.5067 35.9289 37.4288 36.1626 37.4288C36.3964 37.4288 36.5912 37.5067 36.7665 37.6625L39.3864 40.3019L45.6684 34.02C45.8339 33.8641 46.0385 33.7765 46.2625 33.7765C46.4865 33.7765 46.6813 33.8544 46.8371 34.02C47.0027 34.1855 47.0903 34.3901 47.0903 34.6141C47.0903 34.8381 47.0027 35.0426 46.8371 35.1984L46.8274 35.2082Z" fill="url(#paint1_linear_1_17279)"/>
</g>
<defs>
<linearGradient id="paint0_linear_1_17279" x1="40" y1="4.36328" x2="40" y2="77.5067" gradientUnits="userSpaceOnUse">
<stop stop-color="#B7D6EB"/>
<stop offset="1" stop-color="#7DA5C8"/>
</linearGradient>
<linearGradient id="paint1_linear_1_17279" x1="41.9382" y1="51.7263" x2="41.9382" y2="22.5858" gradientUnits="userSpaceOnUse">
<stop stop-color="#B7D6EB"/>
<stop offset="1" stop-color="#7DA5C8"/>
</linearGradient>
<clipPath id="clip0_1_17279">
<rect width="80" height="80" fill="white"/>
</clipPath>
</defs>
</svg>
